<?xml version="1.0" encoding="UTF-8" standalone="no"?><!DOCTYPE svg PUBLIC "-//W3C//DTD SVG 1.1//EN" "http://www.w3.org/Graphics/SVG/1.1/DTD/svg11.dtd"><!-- Generated by graphviz version 2.40.1 (20161225.0304)
 --><!-- Title: %0 Pages: 1 --><svg xmlns="http://www.w3.org/2000/svg" xmlns:xlink="http://www.w3.org/1999/xlink" width="134pt" height="188pt" viewBox="0.00 0.00 134.00 188.00">
<g id="graph0" class="graph" transform="scale(1 1) rotate(0) translate(4 184)">
<title>%0</title>
<polygon fill="#ffffff" stroke="transparent" points="-4,4 -4,-184 130,-184 130,4 -4,4"/>
<!-- f -->
<g id="node1" class="node">
<title>f</title>
<polygon fill="none" stroke="#000000" points="90,-108 36,-108 36,-72 90,-72 90,-108"/>
<text text-anchor="middle" x="63" y="-85.8" font-family="Times,serif" font-size="14.00" fill="#000000">f</text>
</g>
<!-- Z -->
<g id="node4" class="node">
<title>Z</title>
<ellipse fill="none" stroke="#000000" cx="63" cy="-18" rx="27" ry="18"/>
<text text-anchor="middle" x="63" y="-13.8" font-family="Times,serif" font-size="14.00" fill="#000000">z:Z</text>
</g>
<!-- f&#45;&gt;Z -->
<g id="edge3" class="edge">
<title>f-&gt;Z</title>
<path fill="none" stroke="#000000" d="M63,-71.8314C63,-64.131 63,-54.9743 63,-46.4166"/>
<polygon fill="#000000" stroke="#000000" points="66.5001,-46.4132 63,-36.4133 59.5001,-46.4133 66.5001,-46.4132"/>
</g>
<!-- X -->
<g id="node2" class="node">
<title>X</title>
<ellipse fill="none" stroke="#000000" cx="27" cy="-162" rx="27" ry="18"/>
<text text-anchor="middle" x="27" y="-157.8" font-family="Times,serif" font-size="14.00" fill="#000000">x:X</text>
</g>
<!-- X&#45;&gt;f -->
<g id="edge1" class="edge">
<title>X-&gt;f</title>
<path fill="none" stroke="#000000" d="M35.7146,-144.5708C39.8228,-136.3544 44.8196,-126.3608 49.4089,-117.1821"/>
<polygon fill="#000000" stroke="#000000" points="52.648,-118.5301 53.9897,-108.0206 46.387,-115.3996 52.648,-118.5301"/>
</g>
<!-- Y -->
<g id="node3" class="node">
<title>Y</title>
<ellipse fill="none" stroke="#000000" cx="99" cy="-162" rx="27" ry="18"/>
<text text-anchor="middle" x="99" y="-157.8" font-family="Times,serif" font-size="14.00" fill="#000000">y:Y</text>
</g>
<!-- Y&#45;&gt;f -->
<g id="edge2" class="edge">
<title>Y-&gt;f</title>
<path fill="none" stroke="#000000" d="M90.2854,-144.5708C86.1772,-136.3544 81.1804,-126.3608 76.5911,-117.1821"/>
<polygon fill="#000000" stroke="#000000" points="79.613,-115.3996 72.0103,-108.0206 73.352,-118.5301 79.613,-115.3996"/>
</g>
</g>
</svg>